<?xml version="1.0" encoding="utf-8"?>
<!-- Generator: Adobe Illustrator 24.1.3, SVG Export Plug-In . SVG Version: 6.00 Build 0)  -->
<svg version="1.1" id="Capa_1" xmlns="http://www.w3.org/2000/svg" xmlns:xlink="http://www.w3.org/1999/xlink" x="0px" y="0px"
	 viewBox="0 0 512 512" style="enable-background:new 0 0 512 512;" xml:space="preserve">
<style type="text/css">
	.st0{fill:#FFFFFF;}
</style>
<path class="st0" d="M255.8,0.5C114.5,0.5,0,115,0,256.3S114.5,512,255.8,512s255.7-114.5,255.7-255.7S397,0.5,255.8,0.5z
	 M141.4,141.1h228.6c3.1,0,6.2,0.5,9.1,1.2c-0.4,0.4-0.8,0.7-1.2,1.1L275.7,259.3c-5.1,5.8-12.3,9-20,9c-7.8,0-14.9-3.2-20-9
	l-103.2-117C135.3,141.6,138.3,141.1,141.4,141.1z M405.3,309.3c0,34.3-27.8,62.1-62.1,62.1h-175c-34.3,0-62.1-27.8-62.1-62.1V176.4
	c0-4.9,1-9.6,2.8-13.9l103.4,117.3c11,12.4,26.8,19.6,43.3,19.6c16.6,0,32.4-7.1,43.3-19.6L401.2,164c0.5-0.5,0.8-1.1,1.2-1.6
	c1.9,4.3,2.9,9.1,2.9,14.1V309.3z"/>
</svg>
