<?xml version="1.0" encoding="utf-8"?>
<!-- Generator: Adobe Illustrator 24.1.3, SVG Export Plug-In . SVG Version: 6.00 Build 0)  -->
<svg version="1.1" id="Capa_1" xmlns="http://www.w3.org/2000/svg" xmlns:xlink="http://www.w3.org/1999/xlink" x="0px" y="0px"
	 viewBox="0 0 512 512" style="enable-background:new 0 0 512 512;" xml:space="preserve">
<style type="text/css">
	.st0{fill:#FFFFFF;}
</style>
<g>
	<path class="st0" d="M257.3,207.5c-27,0-49,22-49,49c0,27,22,49,49,49c27,0,49-22,49-49C306.2,229.5,284.3,207.5,257.3,207.5z"/>
	<path class="st0" d="M317.9,130.5H194c-35.3,0-64,28.7-64,64v123.9c0,35.3,28.7,64,64,64h123.9c35.3,0,64-28.7,64-64V194.5
		C382,159.2,353.3,130.5,317.9,130.5z M257.3,332.9c-42.1,0-76.4-34.3-76.4-76.4c0-42.1,34.3-76.4,76.4-76.4
		c42.1,0,76.4,34.3,76.4,76.4C333.7,298.6,299.4,332.9,257.3,332.9z M338.2,193.1c-10,0-18.2-8.1-18.2-18.2c0-10,8.1-18.2,18.2-18.2
		c10,0,18.2,8.1,18.2,18.2C356.4,185,348.2,193.1,338.2,193.1z"/>
	<path class="st0" d="M256,0.5C114.6,0.5,0,115.1,0,256.5s114.6,256,256,256c141.4,0,256-114.6,256-256S397.4,0.5,256,0.5z
		 M411.2,318.4c0,51.4-41.8,93.2-93.2,93.2H194c-51.4,0-93.2-41.8-93.2-93.2V194.5c0-51.4,41.8-93.2,93.2-93.2h123.9
		c51.4,0,93.2,41.8,93.2,93.2V318.4z"/>
</g>
</svg>
